<?xml version="1.0" encoding="utf-8"?>
<!-- Generator: Adobe Illustrator 25.4.0, SVG Export Plug-In . SVG Version: 6.00 Build 0)  -->
<svg version="1.1" id="LinkedIn_alt" xmlns="http://www.w3.org/2000/svg" xmlns:xlink="http://www.w3.org/1999/xlink" x="0px"
	 y="0px" viewBox="0 0 420 401.4" style="enable-background:new 0 0 420 401.4;" xml:space="preserve">
<path d="M5.3,130.6h90v270.9h-90V130.6z M50.9,0C20.1,0,0,20.2,0,46.8c0,26,19.5,46.8,49.8,46.8h0.6c31.4,0,50.9-20.8,50.9-46.8
	C100.7,20.2,81.7,0,50.9,0z M316.3,124.2c-47.8,0-69.2,26.3-81.1,44.7v-38.3h-90c1.2,25.4,0,270.9,0,270.9h90V250.2
	c0-8.1,0.6-16.2,3-22c6.5-16.2,21.3-32.9,46.2-32.9c32.6,0,45.6,24.9,45.6,61.2v144.9h90V246.1C420,162.9,375.6,124.2,316.3,124.2z"
	/>
</svg>
