<svg width="23" height="20" viewBox="0 0 23 20" fill="none" xmlns="http://www.w3.org/2000/svg">
<path d="M20.457 4.78075C20.4663 4.99195 20.4663 5.19356 20.4663 5.40476C20.4755 11.808 15.7711 19.2 7.16783 19.2C4.63038 19.2 2.13924 18.4416 0 17.0208C0.370431 17.0688 0.740861 17.088 1.11129 17.088C3.21349 17.088 5.26011 16.3584 6.91779 15.0048C4.91746 14.9664 3.15792 13.6128 2.54671 11.6352C3.25053 11.7792 3.97287 11.7504 4.65816 11.5488C2.48188 11.1072 0.916816 9.11997 0.907555 6.80636C0.907555 6.78716 0.907555 6.76796 0.907555 6.74876C1.55581 7.12316 2.28741 7.33436 3.02827 7.35356C0.981641 5.93276 0.342648 3.10075 1.58359 0.883141C3.96361 3.91675 7.46418 5.75036 11.224 5.95196C10.8444 4.27195 11.363 2.50555 12.5761 1.31514C14.4561 -0.518463 17.4195 -0.422463 19.1976 1.52634C20.244 1.31514 21.2535 0.911941 22.1703 0.34554C21.8184 1.46874 21.0868 2.41915 20.1144 3.02395C21.0405 2.90875 21.948 2.64955 22.8 2.26555C22.1703 3.24475 21.3738 4.08955 20.457 4.78075Z" fill="#3C3E41"/>
</svg>
