<?xml version="1.0" encoding="utf-8"?>
<!-- Generator: Adobe Illustrator 25.4.0, SVG Export Plug-In . SVG Version: 6.00 Build 0)  -->
<svg version="1.1" id="Слой_1" xmlns="http://www.w3.org/2000/svg" xmlns:xlink="http://www.w3.org/1999/xlink" x="0px" y="0px"
	 viewBox="0 0 26.4 20" style="enable-background:new 0 0 26.4 20;" xml:space="preserve">
<style type="text/css">
	.st0{fill-rule:evenodd;clip-rule:evenodd;fill:#3C3E41;}
	.st1{fill-rule:evenodd;clip-rule:evenodd;fill:none;}
</style>
<path class="st0" d="M1.6,8.2C7.8,5.5,11.9,3.8,14,2.9C19.9,0.4,21.1,0,21.9,0c0.2,0,0.6,0,0.8,0.2C23,0.4,23,0.7,23.1,0.8
	c0,0.2,0.1,0.5,0,0.8C22.8,5,21.4,13.2,20.7,17c-0.3,1.6-0.9,2.1-1.5,2.2c-1.2,0.1-2.2-0.8-3.4-1.6c-1.9-1.2-2.9-2-4.7-3.2
	C9,13,10.4,12.2,11.6,11c0.3-0.3,5.8-5.3,5.9-5.7c0-0.1,0-0.3-0.1-0.4c-0.1-0.1-0.3-0.1-0.4,0c-0.2,0-3.2,2-9,5.9
	c-0.8,0.6-1.6,0.9-2.3,0.9c-0.8,0-2.2-0.4-3.3-0.8C1,10.4-0.1,10.2,0,9.4C0.1,9,0.6,8.6,1.6,8.2z"/>
<rect x="0" class="st1" width="26.4" height="20"/>
</svg>
